<svg width="57" height="57" viewBox="0 0 57 57" fill="none" xmlns="http://www.w3.org/2000/svg">
<g clip-path="url(#clip0)">
<path d="M41.6968 33.1105C41.4152 33.0602 40.8321 33.03 39.9774 33.03H38.8111V36.3983H40.1182C41.0633 36.3983 41.6968 36.338 42.0085 36.2073C42.3302 36.0866 42.5715 35.8855 42.7525 35.6241C42.9335 35.3627 43.024 35.051 43.024 34.6991C43.024 34.2667 42.8933 33.9148 42.6419 33.6333C42.4006 33.3518 42.0788 33.1808 41.6968 33.1105ZM28.7966 32.8691C27.8112 32.8691 27.0169 33.211 26.4136 33.8847C25.8104 34.5583 25.5087 35.5839 25.5087 36.9513C25.5087 38.2987 25.8204 39.3142 26.4438 40.008C27.0672 40.7017 27.8515 41.0436 28.8067 41.0436C29.7619 41.0436 30.5461 40.7017 31.1595 40.008C31.7728 39.3242 32.0744 38.2886 32.0744 36.9111C32.0744 35.5537 31.7728 34.5382 31.1796 33.8646C30.5763 33.2009 29.792 32.8691 28.7966 32.8691Z" fill="#2C3664" fill-opacity="0.28"/>
<path d="M28.505 0C12.7594 0 0 12.7594 0 28.505C0 44.2406 12.7594 57 28.505 57C44.2507 57 57.0101 44.2406 57.0101 28.495C57 12.7594 44.2406 0 28.505 0ZM14.529 24.2217L27.8012 12.5482C28.5754 11.8645 29.8322 11.8645 30.6065 12.5482L30.6165 12.5583C30.707 12.6086 30.7874 12.6689 30.8679 12.7393L43.9289 24.2217C44.7031 24.9055 44.7031 26.0115 43.9289 26.6952C43.4563 27.1175 42.7927 27.2683 42.1693 27.1778C39.6858 22.5828 34.8194 19.4558 29.229 19.4558C23.6386 19.4558 18.7721 22.5828 16.2886 27.1778C15.6652 27.2784 15.0116 27.1175 14.529 26.6952C13.7548 26.0115 13.7548 24.9055 14.529 24.2217ZM22.2812 33.0296H18.7721V42.8832H16.3791V33.0296H12.8599V31.0187H22.2912V33.0296H22.2812ZM32.9894 41.4655C31.9437 42.5514 30.5562 43.0843 28.8167 43.0843C27.0572 43.0843 25.6495 42.5414 24.6038 41.4655C23.5581 40.3897 23.0453 38.9016 23.0453 37.0213C23.0453 35.8148 23.2263 34.7993 23.5883 33.9748C23.8598 33.3715 24.2217 32.8285 24.6943 32.3459C25.1568 31.8633 25.6696 31.5114 26.2327 31.2801C26.9767 30.9684 27.8213 30.8076 28.7866 30.8076C30.5361 30.8076 31.9337 31.3505 32.9794 32.4364C34.025 33.5223 34.5579 35.0305 34.5579 36.961C34.5479 38.8815 34.025 40.3796 32.9894 41.4655ZM45.1154 36.5086C44.8539 37.0012 44.5121 37.3934 44.1099 37.6749C43.6977 37.9564 43.2854 38.1475 42.8631 38.238C42.29 38.3486 41.4655 38.4089 40.3796 38.4089H38.8111V42.8832H36.4181V31.0187H40.259C41.7169 31.0187 42.662 31.079 43.1044 31.1997C43.7881 31.3807 44.3512 31.7627 44.8137 32.366C45.2762 32.9593 45.4974 33.7335 45.4974 34.6786C45.5075 35.4025 45.3768 36.0159 45.1154 36.5086Z" fill="#2C3664" fill-opacity="0.28"/>
</g>
<defs>
<clipPath id="clip0">
<rect width="57" height="57" fill="white"/>
</clipPath>
</defs>
</svg>
